HIERARCHY
ROOT Hips
{
	OFFSET -0.001795 -0.223333 0.028219
	CHANNELS 6 Xposition Yposition Zposition Zrotation Yrotation Xrotation 
	JOINT LeftUpLeg
	{
		OFFSET 0.069520 -0.091406 -0.006815
		CHANNELS 3 Zrotation Yrotation Xrotation
		JOINT LeftLeg
		{
			OFFSET 0.034277 -0.375199 -0.004496
			CHANNELS 3 Zrotation Yrotation Xrotation
			JOINT LeftFoot
			{
				OFFSET -0.013596 -0.397961 -0.043693
				CHANNELS 3 Zrotation Yrotation Xrotation
				JOINT LeftToe
				{
					OFFSET 0.026358 -0.055791 0.119288
					CHANNELS 3 Zrotation Yrotation Xrotation
					End Site
					{
						OFFSET 0.000000 0.000000 0.000000
					}
				}
			}
		}
	}
	JOINT RightUpLeg
	{
		OFFSET -0.067670 -0.090522 -0.004320
		CHANNELS 3 Zrotation Yrotation Xrotation
		JOINT RightLeg
		{
			OFFSET -0.038290 -0.382569 -0.008850
			CHANNELS 3 Zrotation Yrotation Xrotation
			JOINT RightFoot
			{
				OFFSET 0.015774 -0.398415 -0.042312
				CHANNELS 3 Zrotation Yrotation Xrotation
				JOINT RightToe
				{
					OFFSET -0.025372 -0.048144 0.123348
					CHANNELS 3 Zrotation Yrotation Xrotation
					End Site
					{
						OFFSET 0.000000 0.000000 0.000000
					}
				}
			}
		}
	}
	JOINT Spine
	{
		OFFSET -0.002533 0.108963 -0.026696
		CHANNELS 3 Zrotation Yrotation Xrotation
		JOINT Spine1
		{
			OFFSET 0.005487 0.135180 0.001092
			CHANNELS 3 Zrotation Yrotation Xrotation
			JOINT Spine2
			{
				OFFSET 0.001457 0.052922 0.025425
				CHANNELS 3 Zrotation Yrotation Xrotation
				JOINT Neck
				{
					OFFSET -0.002778 0.213870 -0.042857
					CHANNELS 3 Zrotation Yrotation Xrotation
					JOINT Head
					{
						OFFSET 0.005152 0.064970 0.051349
						CHANNELS 3 Zrotation Yrotation Xrotation
						End Site
						{
							OFFSET 0.000000 0.000000 0.000000
						}
					}
				}
				JOINT LeftShoulder
				{
					OFFSET 0.078845 0.121749 -0.034090
					CHANNELS 3 Zrotation Yrotation Xrotation
					JOINT LeftArm
					{
						OFFSET 0.090977 0.030469 -0.008868
						CHANNELS 3 Zrotation Yrotation Xrotation
						JOINT LeftForeArm
						{
							OFFSET 0.259612 -0.012772 -0.027456
							CHANNELS 3 Zrotation Yrotation Xrotation
							JOINT LeftHand
							{
								OFFSET 0.249234 0.008986 -0.001171
								CHANNELS 3 Zrotation Yrotation Xrotation
								End Site
								{
									OFFSET 0.000000 0.000000 0.000000
								}
							}
						}
					}
				}
				JOINT RightShoulder
				{
					OFFSET -0.081759 0.118833 -0.038615
					CHANNELS 3 Zrotation Yrotation Xrotation
					JOINT RightArm
					{
						OFFSET -0.096012 0.032551 -0.009143
						CHANNELS 3 Zrotation Yrotation Xrotation
						JOINT RightForeArm
						{
							OFFSET -0.253742 -0.013329 -0.021401
							CHANNELS 3 Zrotation Yrotation Xrotation
							JOINT RightHand
							{
								OFFSET -0.255298 0.007772 -0.005559
								CHANNELS 3 Zrotation Yrotation Xrotation
								End Site
								{
									OFFSET 0.000000 0.000000 0.000000
								}
							}
						}
					}
				}
			}
		}
	}
}
MOTION
Frames: 9
Frame Time: 0.050000
-0.011208 0.920441 0.015845 2.131330 -12.343262 4.273578 3.962733 -0.271461 -4.812286 -2.826454 0.383601 1.372620 -5.619919 -12.077626 0.095650 0.000000 0.000000 0.000000 -9.402431 0.855990 -10.703205 5.181911 -0.318838 8.684520 0.681972 2.290553 -0.699824 0.000000 0.000000 0.000000 3.368088 -0.196943 1.762500 1.667026 -0.715769 6.555009 6.566005 2.934636 -0.936154 9.192540 -5.038009 -12.863434 0.000000 0.000000 0.000000 -26.240322 -3.126783 0.717431 -42.973360 5.907920 -6.909150 -30.261300 -46.829715 15.869298 0.000000 0.000000 0.000000 27.192185 15.219259 4.885476 41.300160 17.626074 2.886416 -2.528267 48.815404 -0.238201 0.000000 0.000000 0.000000 
-0.010892 0.921021 0.013036 2.090570 -12.160882 4.583149 3.883955 -0.313462 -5.466688 -2.541773 0.338969 1.553297 -5.703700 -12.109738 0.348572 0.000000 0.000000 0.000000 -9.069525 0.878680 -11.124394 4.694410 -0.253134 8.578727 0.668386 2.053194 -0.441721 0.000000 0.000000 0.000000 3.587453 -0.229380 2.071002 1.597418 -0.682561 6.494127 6.667974 3.094871 -0.505162 9.245099 -5.035721 -13.112165 0.000000 0.000000 0.000000 -25.886450 -3.646903 0.995278 -43.391626 5.183962 -6.748073 -30.508609 -47.605156 16.271039 0.000000 0.000000 0.000000 27.799392 15.747940 5.346918 40.656013 18.166477 2.958275 -4.293195 46.647698 -0.871078 0.000000 0.000000 0.000000 
-0.010086 0.921513 0.009944 2.165075 -11.983979 4.820832 3.754275 -0.355509 -6.079084 -2.440127 0.321940 1.705669 -5.814453 -12.161367 0.666257 0.000000 0.000000 0.000000 -9.064874 0.898900 -11.623535 4.517513 -0.228730 8.652651 0.657464 1.807112 -0.158055 0.000000 0.000000 0.000000 3.644250 -0.261302 2.459840 1.614308 -0.699366 6.206363 6.931342 3.539259 0.030820 9.383467 -4.996241 -13.838800 0.000000 0.000000 0.000000 -25.762170 -4.079048 1.135474 -43.637670 4.351014 -6.510185 -31.025447 -47.949641 16.605632 0.000000 0.000000 0.000000 28.267763 16.411501 6.020124 39.440367 19.422234 3.147381 -5.993925 43.428015 -1.324371 0.000000 0.000000 0.000000 
-0.008857 0.922351 0.006530 2.318369 -11.658860 5.088023 3.473461 -0.406628 -6.649533 -2.246096 0.290569 1.601187 -6.035933 -12.309661 1.220973 0.000000 0.000000 0.000000 -8.861040 0.933311 -12.396521 3.795367 -0.112439 9.158321 0.576323 1.390405 0.118778 0.000000 0.000000 0.000000 3.773308 -0.292018 2.776664 1.670117 -0.735858 6.268181 6.960372 4.153066 0.347700 9.584614 -4.991545 -14.350484 0.000000 0.000000 0.000000 -25.433686 -4.605165 1.211547 -43.698165 3.996000 -6.343989 -32.638109 -48.795112 17.615053 0.000000 0.000000 0.000000 28.509732 17.089142 6.847019 38.066759 20.847830 3.310343 -8.084799 41.323902 -1.874445 0.000000 0.000000 0.000000 
-0.007207 0.922613 0.002728 2.402375 -11.572261 5.375883 3.300398 -0.452755 -7.267638 -2.180346 0.280006 1.584869 -6.108249 -12.287791 1.517308 0.000000 0.000000 0.000000 -8.923489 0.959371 -12.969044 3.611788 -0.086714 9.126920 0.595547 1.213466 0.426498 0.000000 0.000000 0.000000 3.891234 -0.325318 3.123403 1.608246 -0.706449 6.033266 7.217215 4.845497 0.794007 9.678798 -4.897265 -15.050908 0.000000 0.000000 0.000000 -25.077931 -5.049470 1.277662 -43.942136 3.758836 -6.263197 -34.438427 -49.448932 18.687374 0.000000 0.000000 0.000000 28.519207 17.897752 7.722747 36.369656 22.810269 3.551815 -9.577080 39.626629 -2.193531 0.000000 0.000000 0.000000 
-0.005407 0.922975 -0.001259 2.423669 -11.592225 5.710227 3.401357 -0.473534 -7.766750 -2.505775 0.329008 1.284255 -6.194970 -12.199043 1.982863 0.000000 0.000000 0.000000 -8.886716 0.993384 -13.545025 3.343286 -0.050206 8.964888 0.676312 1.130462 0.821840 0.000000 0.000000 0.000000 3.942527 -0.347732 3.347826 1.525054 -0.657332 6.266783 7.485866 5.607436 0.790485 9.871076 -4.907484 -15.321122 0.000000 0.000000 0.000000 -24.669631 -5.282896 1.184209 -44.129873 4.122221 -6.335057 -36.895784 -50.169903 20.128051 0.000000 0.000000 0.000000 28.234184 18.728634 8.590838 34.634237 24.683685 3.735210 -11.777041 39.680215 -2.872164 0.000000 0.000000 0.000000 
-0.003478 0.923620 -0.004943 2.458478 -11.586947 6.130460 3.240221 -0.510370 -8.209618 -2.409668 0.316526 0.735309 -6.291359 -12.089719 2.527255 0.000000 0.000000 0.000000 -8.995269 1.022575 -14.101206 3.278460 -0.051634 8.624592 0.791675 1.014306 1.386822 0.000000 0.000000 0.000000 4.026094 -0.357969 3.350241 1.497627 -0.638232 6.408460 7.657709 6.003387 0.751662 9.876878 -4.807647 -15.720051 0.000000 0.000000 0.000000 -24.570845 -5.026574 0.903227 -44.400620 4.723200 -6.535036 -39.678693 -50.274611 21.556360 0.000000 0.000000 0.000000 27.914767 19.160754 9.023347 32.868219 26.469010 3.882812 -13.805210 40.694683 -3.633860 0.000000 0.000000 0.000000 
-0.001760 0.924006 -0.008027 2.378070 -11.566491 6.527588 3.217234 -0.535845 -8.626529 -2.325152 0.306470 0.310466 -6.354459 -12.014402 2.890570 0.000000 0.000000 0.000000 -8.994112 1.044017 -14.404121 3.254295 -0.068332 8.001572 0.900117 0.926054 1.891629 0.000000 0.000000 0.000000 4.277623 -0.372932 3.293004 1.353580 -0.559351 6.433405 7.861353 6.511161 0.994495 9.949159 -4.857531 -15.510000 0.000000 0.000000 0.000000 -24.532370 -5.375232 0.961083 -44.732581 5.508582 -6.827258 -40.839216 -50.713856 22.289384 0.000000 0.000000 0.000000 27.446439 19.835110 9.659326 31.167164 27.844551 3.853312 -17.073993 42.452727 -4.979046 0.000000 0.000000 0.000000 
-0.000541 0.924821 -0.010319 2.327597 -11.498218 6.728995 3.212837 -0.532781 -8.506644 -2.299286 0.309465 -0.611318 -6.522433 -11.999403 3.525810 0.000000 0.000000 0.000000 -8.933016 1.054644 -14.530190 3.127814 -0.065012 7.562175 1.010126 0.832165 2.414111 0.000000 0.000000 0.000000 4.360316 -0.380513 3.293712 1.325296 -0.541974 6.643893 7.948263 6.565532 0.766254 10.021926 -4.895782 -15.446906 0.000000 0.000000 0.000000 -24.396984 -4.964071 0.683407 -45.525865 6.318150 -7.216335 -40.760096 -50.188829 21.962022 0.000000 0.000000 0.000000 26.684987 19.847325 9.605638 30.505910 29.142842 4.047681 -19.398011 44.674961 -6.210271 0.000000 0.000000 0.000000 
